# xmcd
#
# Track frame offsets:
#	150
#	14155
#	29602
#	46580
#	66591
#	90529
#	110595
#	130362
#	156467
#	173490
#	189130
#	212501
#	226750
#	243440
#	274874
#	289484
#	302879
#	320486
#	337714
#
# Disc length: 4708 seconds
#
# Revision: 1
# Processed by: cddbd v1.5.2PL0 Copyright (c) Steve Scherf et al.
# Submitted via: EasyCDDAExtractor 16.0.9.1
#
DISCID=10126213
DTITLE=Various Artist - Viva Martini (Special Bonus Edition)
DYEAR=2000
DGENRE=Dance, Pop
TTITLE0=Brainstorm - May Star
TTITLE1=Britney Spears - Lucky
TTITLE2=Maddona - Music
TTITLE3=Sonique - Sky
TTITLE4=Limp Bizkit - Mission Imposible
TTITLE5=Eminem - Kill You
TTITLE6=W. Houston and E. Iglesias - Could I Have This Kiss Forever
TTITLE7=Melanie C. - I Turn To You
TTITLE8=Backstreet Boys - The One
TTITLE9=The Corrs - Breathless
TTITLE10=Bon Jovi - Two Story Town
TTITLE11=Bad Boys Blue - S.O.S. For Love
TTITLE12=ATC - Around The Word
TTITLE13=Gigi D'agostino - L'amour Toujours
TTITLE14=Bomfunk Mc's - B-Boys and Fly Girls
TTITLE15=ATB - The Summer
TTITLE16=Brayan Adams - Fearless
TTITLE17=A-Ha - Thought That It Was You
TTITLE18=Him and Anastasia - Join Me (Remix)
EXTD=ID3G: 13
EXTT0=
EXTT1=
EXTT2=
EXTT3=
EXTT4=
EXTT5=
EXTT6=
EXTT7=
EXTT8=
EXTT9=
EXTT10=
EXTT11=
EXTT12=
EXTT13=
EXTT14=
EXTT15=
EXTT16=
EXTT17=
EXTT18=
PLAYORDER=
